<?xml version="1.0" encoding="UTF-8"?>
<svg width="128px" height="128px" viewBox="0 0 128 128" version="1.1" xmlns="http://www.w3.org/2000/svg" xmlns:xlink="http://www.w3.org/1999/xlink">
    <!-- Generator: Sketch 55.2 (78181) - https://sketchapp.com -->
    <title>diamond</title>
    <desc>Created with Sketch.</desc>
    <g id="diamond" stroke="none" stroke-width="1" fill="none" fill-rule="evenodd">
        <path d="M5.647,67.235 C23.839,80.4655 47.5345,104.161 60.765,122.3525 C61.5175,123.3875 62.72,124 64,124 C65.28,124 66.482,123.3875 67.235,122.3525 C80.4655,104.161 104.161,80.4655 122.353,67.235 C123.388,66.4825 124,65.28 124,64 C124,62.72 123.3875,61.518 122.353,60.765 C104.161,47.535 80.465,23.839 67.235,5.6475 C66.4825,4.6125 65.28,4 64,4 C62.72,4 61.518,4.6125 60.765,5.6475 C47.5345,23.839 23.839,47.5345 5.647,60.765 C4.612,61.5175 4,62.72 4,64 C4,65.28 4.612,66.4825 5.647,67.235 Z M64,14.656 C77.022,31.4575 96.542,50.9775 113.344,64 C96.542,77.0225 77.022,96.5425 64,113.344 C50.978,96.5425 31.458,77.0225 14.656,64 C31.4575,50.9775 50.9775,31.4575 64,14.656 Z" id="Shape" fill="#DF5656" fill-rule="nonzero"></path>
    </g>
</svg>