<?xml version="1.0" encoding="UTF-8"?>
<svg width="128px" height="128px" viewBox="0 0 128 128" version="1.1" xmlns="http://www.w3.org/2000/svg" xmlns:xlink="http://www.w3.org/1999/xlink">
    <!-- Generator: Sketch 55.2 (78181) - https://sketchapp.com -->
    <title>heart</title>
    <desc>Created with Sketch.</desc>
    <g id="heart" stroke="none" stroke-width="1" fill="none" fill-rule="evenodd">
        <path d="M89.2884415,8 C79.6381408,8 70.5127645,12.1825 63.9994996,19.402 C57.4862347,12.1825 48.3613588,8 38.7105577,8 C19.571587,8 4,24.2145 4,44.1455 C4,61.371 13.8454584,79.3315 33.2631544,97.527 C47.4205983,110.794 61.374878,119.0965 61.9623529,119.443 C62.5908609,119.8145 63.2954305,120 64,120 C64.7045695,120 65.4091391,119.8145 66.0376471,119.443 C66.6246216,119.0965 80.5789013,110.794 94.7368456,97.527 C114.154542,79.3315 124,61.371 124,44.1455 C124,24.2145 108.428413,8 89.2884415,8 Z M64,111.285 C54.1465351,104.9755 12.0064719,76.112 12.0064719,44.1455 C12.0064719,28.626 23.9861555,16 38.7110581,16 C47.4501222,16 55.6537535,20.5335 60.6557968,28.1275 C61.3963954,29.2515 62.6529111,29.9285 64,29.9285 C65.3470889,29.9285 66.6036046,29.2515 67.3442032,28.1275 C72.3462465,20.5335 80.5498778,16 89.2889419,16 C104.013845,16 115.993528,28.626 115.993528,44.1455 C115.993528,76.112 73.8524641,104.976 64,111.285 Z" id="Shape" fill="#DF5656" fill-rule="nonzero"></path>
    </g>
</svg>